<svg width="29" height="21" viewBox="0 0 29 21" fill="none" xmlns="http://www.w3.org/2000/svg">
<path d="M0.69043 10.5H5.52376C8.19314 10.5 10.3571 8.33602 10.3571 5.66665C10.3571 2.99727 8.19314 0.833313 5.52376 0.833313H0.69043V10.5ZM0.69043 10.5H8.28567C10.955 10.5 13.119 12.6639 13.119 15.3333C13.119 18.0027 10.955 20.1666 8.28567 20.1666H0.69043V10.5ZM17.2619 14.6428H28.3095C28.3095 11.5921 25.8364 9.11903 22.7857 9.11903C19.735 9.11903 17.2619 11.5921 17.2619 14.6428ZM17.2619 14.6428C17.2619 17.6935 19.735 20.1666 22.7857 20.1666C23.958 20.1666 25.045 19.8015 25.9391 19.1786M16.5714 3.59522H29" stroke="white"/>
</svg>
