<svg width="30" height="30" viewBox="0 0 30 30" fill="none" xmlns="http://www.w3.org/2000/svg">
<path d="M22.7 7.76105H24.1M6.6 0.761047H23.4C26.4928 0.761047 29 3.26825 29 6.36105V23.161C29 26.2538 26.4928 28.761 23.4 28.761H6.6C3.50721 28.761 1 26.2538 1 23.161V6.36105C1 3.26825 3.50721 0.761047 6.6 0.761047ZM15 20.361C11.9072 20.361 9.4 17.8538 9.4 14.761C9.4 11.6683 11.9072 9.16105 15 9.16105C18.0928 9.16105 20.6 11.6683 20.6 14.761C20.6 17.8538 18.0928 20.361 15 20.361Z" stroke="white" stroke-width="0.816667"/>
</svg>
